<svg width="142" height="73" viewBox="0 0 142 73" fill="none" xmlns="http://www.w3.org/2000/svg">
<path d="M11.4912 7.16549C-26.5088 27.1655 58.4912 71.1655 58.4912 71.1655C58.4912 71.1655 187.491 6.16551 121.491 1.16551C102.654 -0.0278498 58.4912 17.1655 58.4912 17.1655C58.4912 17.1655 31.9573 -3.80782 11.4912 7.16549Z" fill="#FF0000" fill-opacity="0.75"/>
<path d="M54.7524 71.3985C52.999 70.5783 50.806 69.3807 49.1672 68.4051C48.6634 68.1057 48.9851 68.1441 48.6355 67.9284C47.9438 67.5003 47.2304 67.1763 46.5902 66.7586C46.3725 66.6157 46.7554 66.6053 46.5248 66.4584C45.2294 65.6336 43.9893 64.9854 42.6666 64.1658C36.2621 60.1779 30.0353 56.0848 23.9202 51.4475C21.899 49.9176 19.6267 47.8355 17.5377 46.2391C17.2944 46.0542 17.2715 46.3607 17.2134 46.3392C16.3053 45.9954 16.8715 45.8075 16.4609 45.3707C14.816 43.6235 12.89 41.8253 11.2038 40.2936C10.4879 39.6415 10.7985 40.7044 10.3084 39.788C10.2743 39.7246 10.6555 39.7069 10.4871 39.492C10.1031 39.0056 9.27369 38.2029 8.97756 37.8438C8.4116 37.1569 8.29694 37.0322 7.72859 36.3729C6.95105 35.4626 6.20955 34.3157 5.37972 33.3015C5.20525 33.09 5.17109 33.5622 4.86977 33.2389C4.56014 32.9089 3.94731 31.98 3.77983 31.5823C3.62133 31.2046 3.92259 31.2186 3.93132 31.1291C4.01473 30.3948 2.78047 29.5828 2.68432 29.434C0.883587 26.7285 0.205468 23.8929 0.0266687 20.7075C-0.130313 18.2863 0.40836 15.512 1.57982 13.5102C3.0122 11.0505 4.77048 9.61721 6.80385 8.02916C7.02869 7.85862 6.51878 7.72584 6.79831 7.51454C7.94128 6.65665 9.10795 5.9294 10.4693 5.22384L10.4544 5.23176C12.2837 4.26958 14.2056 3.57466 16.2118 3.17064C16.5515 3.10409 16.2255 3.5838 16.5675 3.54101C18.6927 3.22368 21.8912 3.59271 23.0538 1.90586C24.484 1.88736 26.2177 1.98537 27.4421 2.41525C28.2289 2.69408 27.4148 3.04592 28.4079 2.95621C28.6323 2.93837 28.3823 2.54329 28.7187 2.54513C30.139 2.55451 31.6396 2.9144 33.0411 3.00811C33.3265 3.02632 33.3209 2.68483 33.4127 2.64262C34.1863 2.30402 35.1079 3.35623 35.3212 3.47455C37.0071 4.36268 38.3326 4.59825 39.9502 5.17409C40.3267 5.31032 40.0335 4.72352 40.4028 4.84023C42.3034 5.44868 44.2177 6.28337 45.8948 7.28511C46.2674 7.50943 45.7406 7.69685 45.9091 7.82202C46.6395 8.36697 47.1562 7.79343 47.8652 8.3241C48.0139 8.43519 47.7699 8.68978 47.783 8.73771C47.9751 9.48399 48.7643 8.9661 48.8931 9.01233C50.5056 9.57356 51.0663 10.8754 52.5135 11.5874C52.6939 11.6765 52.5255 11.0764 53.0185 11.3494C55.2716 12.6024 57.5052 14.0948 59.542 15.8362L57.8765 15.5865C58.8893 15.26 59.9665 14.9426 61.035 14.6551C61.5488 14.5207 61.3087 14.9591 61.3536 14.9853C62.081 15.3866 62.1822 14.4498 62.3301 14.3612C63.5628 13.6616 65.1081 13.8575 65.6537 12.5907C70.3423 11.2074 74.8155 9.3589 79.5353 8.2041C80.6965 7.92029 81.866 7.68099 83.0543 7.50254C83.13 7.49022 83.1233 7.9305 83.2737 7.90425C85.0888 7.59394 84.5759 7.0712 85.5053 5.96146C85.7411 5.68221 86.9089 6.3383 87.0077 6.38284C87.3695 6.54679 87.2461 7.23187 87.3568 7.25166C88.2662 7.39589 87.5564 5.45827 88.6371 5.14651C88.6718 5.1401 88.6348 5.54468 88.7357 5.55484C89.0496 5.58764 89.2876 5.36323 89.5993 5.41017C90.3148 5.521 90.807 6.4188 91.613 5.59199C91.715 5.48587 91.2162 4.41319 92.2007 4.20139C92.5921 4.11683 94.3032 3.63949 94.8028 3.58917C95.3017 3.53723 95.0666 3.9854 95.105 3.99218C96.5201 4.13792 96.0838 4.46308 96.9099 5.0084C97.7328 5.55275 97.1292 3.9107 97.3465 3.65624C97.5647 3.40176 98.6093 3.56571 98.879 3.64688C99.1464 3.72817 98.9104 4.02925 99.137 4.05708C100.633 4.23759 99.5412 3.07444 99.9326 2.69892C100.851 1.81528 101.996 2.87634 102.995 2.78798C103.267 2.76408 102.989 2.5249 103.219 2.44759C104.137 2.14562 104.796 2.41692 105.788 1.84958C105.94 1.75829 106.693 0.832639 107.358 1.286C107.452 1.35154 107.283 1.70516 107.698 1.70286C108.309 1.70092 109.424 1.5824 110.055 1.37794C110.521 1.22652 109.893 0.794312 110.52 0.863241C110.797 0.895039 110.35 1.27039 110.865 1.30548C111.388 1.33716 112.685 1.1493 113.16 1.08469C113.646 1.01651 113.336 0.656255 113.371 0.625286C113.601 0.443435 114.54 0.154823 114.623 0.149052C116.987 -0.10189 119.276 -0.0172581 121.548 0.263322L121.559 0.264096C123.522 0.52713 125.305 0.805239 126.994 0.972491C127.29 1.00283 127.157 0.571525 127.203 0.572023C128.398 0.598018 127.308 1.50619 128.055 2.00118C128.079 1.17282 128.546 1.40155 129.346 1.47483C129.73 1.51036 129.591 1.15776 129.632 1.1331C130.293 0.782639 130.529 1.47936 130.592 1.62444C130.831 2.16104 131.331 1.72168 131.477 2.08387C131.619 2.44255 130.991 2.74487 131.649 2.91976C131.954 2.70378 131.558 1.79918 132.21 1.85813C134.683 2.01608 138.149 4.3256 139.342 6.0064C140.447 7.42064 140.711 8.18202 140.859 9.249C140.919 11.2025 141.369 10.4506 141.516 11.8101C141.549 13.0946 140.338 12.2085 140.029 12.3183C139.718 12.4013 139.966 12.6299 139.763 12.7754C139.56 12.9137 139.483 12.4748 139.307 12.8761C139.149 13.2721 139.139 14.6179 139.335 14.8711C139.749 15.4503 140.626 15.2117 139.816 16.2555C139.768 16.3142 139.579 15.9384 139.412 16.1705C138.09 18.0133 136.666 19.796 135.132 21.1992C134.914 21.3991 134.805 20.9533 134.675 21.0663C133.305 22.2348 134.164 22.2191 134.011 23.396C133.481 22.603 132.734 22.579 131.795 23.5132C131.222 24.0771 131.6 24.2673 131.412 24.8417C131.355 25.0146 130.737 25.2225 130.786 25.4334C130.948 26.1207 131.814 26.2625 130.616 26.9844C130.563 27.0152 130.479 26.6397 130.311 26.7644C129.22 27.5696 129.521 28.1532 128.412 29.1998C127.539 30.0231 125.753 30.991 124.648 31.7859C124.055 30.9955 123.199 31.9674 123.234 32.7913C122.552 33.2846 121.842 33.872 121.121 34.2978C120.873 34.4446 120.855 34.1086 120.808 34.1062C120.082 34.0607 120.168 34.8022 120.031 34.9339C118.558 36.3256 116.988 36.8637 115.671 38.3553C115.626 38.4077 115.903 39.0013 115.211 38.9081C115.166 38.9004 115.509 38.3045 114.768 38.793C114.026 39.2806 112.447 39.9561 111.573 40.8968C111.364 41.1236 111.001 41.9746 110.275 41.9825C110.178 41.9829 110.153 41.7859 110 41.7685C109.511 41.7166 109.686 42.3504 109.021 42.1555C108.356 41.9604 107.375 42.1489 106.525 43.1394C106.498 43.1703 106.515 43.7388 106.179 43.9476C105.641 44.2819 104.838 44.6822 104.288 45.0397C104.024 45.2109 104.353 45.3502 104.31 45.3842C102.612 46.6612 101.203 47.2374 99.2137 48.3462C98.8504 48.5495 98.032 49.499 97.1913 49.6619C96.2693 49.8444 96.3397 48.2148 94.7872 49.5604C94.1596 50.1083 94.1267 52.0754 92.4283 52.092C90.1074 53.7256 87.6113 54.7152 85.2752 56.3988C85.169 56.4752 85.0235 57.0457 84.7564 57.1911C84.3598 57.4068 84.0492 57.3599 83.7658 57.5076C82.5817 58.1193 81.6077 58.8595 80.4398 59.4872C80.0036 59.7222 80.0597 59.4712 79.544 59.7501C79.0307 60.0283 78.8133 60.4337 78.0787 60.7075C77.5441 60.9014 76.7296 60.791 76.0067 61.1354C76.2148 61.5715 75.7211 61.8364 74.9412 62.4097C74.7916 62.5198 75.044 62.5684 74.9772 62.6278C74.707 62.872 74.3569 62.9093 74.1111 63.1472C74.0512 63.2048 74.1244 63.3458 74.0797 63.4004C73.7021 63.8689 72.6358 64.0412 72.4712 64.0628C71.8021 64.1638 71.6429 64.4782 71.1839 64.624C70.7287 64.7694 71.2919 64.3373 70.7856 64.5513C69.8111 64.9564 68.3448 65.7805 67.3706 66.2968C66.9717 66.5096 67.3329 66.5312 67.2779 66.5656C66.5408 67.0121 65.415 67.3904 65.149 67.9418C64.098 67.4358 64.7785 68.2412 63.3644 68.7676C63.255 68.8076 62.9231 68.4986 63.2905 68.2309C63.7101 67.9351 64.234 67.8094 64.7029 67.4428C64.8074 67.3612 65.3122 66.6091 65.4013 66.5293C66.0779 65.9259 66.532 66.4566 66.5752 66.4768C67.1796 66.6143 67.7906 65.7538 68 65.5988C68.9526 64.9049 69.9272 64.4822 70.674 63.9391C71.1861 63.5715 71.0082 63.1111 71.4519 62.8759C72.9601 62.07 73.7847 62.426 74.8307 61.1144C75.0587 60.8304 74.4867 60.5033 75.7578 60.2848C75.8317 60.2731 76.8458 60.1707 77.1558 59.6851C77.1938 59.6243 77.109 59.4765 77.1736 59.4221C77.6088 59.0599 77.9991 58.9901 78.5005 58.6195C79.0019 58.2486 79.601 57.7776 80.255 57.4601C80.6473 57.269 81.3058 57.2687 81.511 57.2439C82.1178 57.1638 82.4524 56.5103 82.9044 56.5816C83.3619 56.6546 82.9724 57.3966 83.8883 57.0874C83.6798 56.6532 83.5039 56.1843 83.3113 55.7354C85.1282 54.6661 86.9349 53.7625 88.7146 52.6507C88.9351 52.512 88.568 52.4135 88.8004 52.2581C89.789 51.5972 90.751 51.2375 91.7347 50.5307C92.4964 49.982 93.2117 49.1708 94.0042 48.5732C94.8456 48.7776 95.9496 47.8296 96.8717 47.3066C97.1941 47.1242 97.2632 47.2832 97.5148 47.1889C98.4627 46.8297 97.7693 46.596 97.9511 46.3719C98.7276 45.4082 99.5071 46.4566 100.649 45.6857C100.711 45.646 101.081 44.562 101.159 44.4562C101.656 43.7836 101.399 44.5942 101.836 44.3707C102.633 43.9621 103.245 43.7674 104.001 43.0104C104.221 42.7899 104.582 41.9986 105.267 41.9632C105.357 41.9584 105.454 42.186 105.514 42.1629C106.59 41.7281 106.192 41.0687 106.582 40.4842C106.97 39.8991 108.086 39.7793 108.34 39.7942C109.001 39.8283 108.101 40.1679 108.099 40.2169C108.08 40.7981 108.637 40.3203 109.117 40.039C109.61 40.6351 110.239 40.1511 109.617 39.7417C109.548 39.6978 109.227 40.0063 109.117 40.039C109.099 39.1359 109.75 38.5552 110.931 38.603C111.484 38.6257 111.365 39.1906 112.388 38.2994C112.85 37.895 112.347 37.5833 112.699 37.1504C113.482 36.172 115.109 35.6265 116.075 34.8121C116.427 34.5149 115.888 34.5326 116.121 34.3208C116.74 33.7554 117.445 33.5153 118.045 32.9089C118.099 32.8531 117.756 32.7061 117.963 32.5423C119.539 31.2842 120.946 30.4444 122.568 29.1267C123.353 28.491 124.574 27.2161 125.335 26.5978C126.769 25.4357 128.617 24.4229 129.647 23.2448C130.304 22.4896 129.898 22.3922 130.023 21.9261C130.266 21.0204 131.746 20.6575 132.008 20.5641C132.008 20.5725 131.512 21.2284 131.938 21.0389C132.391 21.1104 132.004 20.5705 132.008 20.5641C132.169 20.5227 133.342 19.3179 133.479 19.0334C133.561 18.8764 133.24 18.7304 133.287 18.6532C134.408 16.8159 135.552 15.0282 136.45 13.3995C136.469 13.3736 136.805 13.5797 136.846 13.5151C137.447 12.5654 137.159 11.7222 136.934 11.0716C136.698 10.3752 136.725 10.1882 137.283 9.65732C137.087 9.29541 137.014 8.62055 136.816 8.14675C136.615 7.66808 136.005 8.19807 135.972 8.18589C134.788 7.84636 134.085 6.98911 132.652 6.37835C132.284 6.22562 131.682 6.04498 130.994 5.89039C130.361 5.75093 129.8 5.67176 129.334 5.61395C128.615 5.53037 128.199 5.25884 127.453 5.25232C127.352 5.25146 127.388 5.62148 127.356 5.62999C126.47 5.91943 127.004 5.11884 126.859 4.93628C126.339 4.27957 126.111 3.93448 125.087 4.07703C124.852 4.10894 124.037 5.29548 123.605 5.32889C123.038 5.36889 123.298 4.934 122.687 4.99055C122.634 4.99519 122.62 5.27653 122.245 5.23334C121.906 5.19531 121.555 5.1543 121.192 5.11282L121.241 5.11622C120.048 4.98088 118.637 4.90359 117.301 5.01347C117.076 5.03112 117.391 5.46344 117.067 5.49726C115.508 5.65985 113.823 5.84401 112.25 5.85929C111.859 5.8624 112.054 5.51043 111.958 5.42879C111.351 4.93709 110.775 5.87592 110.656 5.91229C107.894 6.7817 105.559 6.48534 102.736 7.49959C102.577 7.55655 101.574 8.72241 100.855 8.09701C100.807 8.05545 100.083 7.41065 99.7337 8.05809C99.7123 8.09859 100.145 8.41391 99.5491 8.51852C98.9592 8.6218 98.0917 9.12496 97.1762 8.89708C96.8858 8.82584 96.0863 8.21034 95.4901 9.02787C95.4503 9.08348 94.6583 10.7879 93.9837 9.94497C93.8736 9.8061 93.6669 8.77174 92.906 9.54234C92.7615 9.69116 93.1366 9.82977 92.7221 10.0977C92.0894 10.5093 91.0893 10.5006 90.3668 11.1984C90.2399 11.3214 89.8118 12.1905 89.1517 11.8195C89.0481 11.7615 89.1008 11.3793 88.8207 11.4209C87.4898 11.6167 86.2253 12.2443 84.863 12.4093C84.3823 12.4681 84.4473 11.8522 83.9281 11.8534C83.4001 11.8571 82.3889 12.02 81.9722 12.4249C81.5541 12.8303 82.3726 13.5225 81.649 13.8285C81.555 13.8682 81.4609 13.9071 81.3669 13.9454C78.3039 15.1941 75.0363 15.7493 71.8797 16.7554C71.398 16.909 71.8961 17.0798 71.2036 17.3254C68.6457 18.23 64.2407 20.1264 61.8118 20.3061C59.8498 20.4552 61.8971 19.2439 60.4787 19.5385C60.281 19.5845 60.1633 19.6786 60.0293 19.8204C59.8578 19.9765 59.7764 20.1396 59.7117 20.3005L57.8974 20.9965L56.4051 19.8048C56.257 19.8467 56.1036 19.8903 55.9427 19.8923C55.8216 19.9245 55.7235 19.9381 55.688 19.9215C54.2616 19.2689 53.6014 18.2581 52.3282 17.5884C52.0608 17.4485 52.0801 17.9631 51.8539 17.8397C51.1053 17.4385 50.4418 16.8015 49.714 16.402C49.3789 16.2191 49.2884 16.5376 49.0127 16.3445C48.344 15.8835 47.8036 15.4185 47.2444 14.7681C47.1926 14.7085 47.8177 14.6008 47.2866 14.2914C46.4594 13.8102 45.5103 12.9821 44.3624 12.7566C44.0268 12.6941 43.7109 13.3412 43.2815 12.5845C43.1917 12.4276 43.7222 11.7161 42.6581 12.0495C42.4823 12.1034 40.8168 12.4588 40.4551 11.6095C40.3576 11.3835 40.1953 10.5543 39.7803 10.5094C39.7241 10.5061 39.7839 10.9436 39.4665 10.8583C38.3574 10.5551 37.2401 10.1076 36.0874 9.86165C35.7824 9.798 36.1034 10.3154 35.6557 10.2101C34.4236 9.91997 32.939 9.41184 31.7715 9.03172C31.3411 8.89058 31.7097 8.64023 31.6852 8.59872C31.2758 7.92548 30.8169 8.6247 30.6409 8.63623C29.5329 8.70026 28.7741 8.22228 27.7775 8.20655C27.504 8.20237 27.6621 8.58588 27.6052 8.6124C27.0251 8.87138 27.4944 8.26166 27.1466 8.15621C26.1715 7.86133 25.0546 7.84264 24.0626 7.89981C23.6983 7.92191 24.1176 8.33361 23.7944 8.34934C21.8879 8.45356 19.9662 8.65171 18.1361 8.88111C17.7926 8.92407 17.9178 8.5676 17.829 8.51621C17.2012 8.15868 16.6858 9.03687 16.5571 9.14903C15.9413 9.66681 15.5723 9.51168 14.9646 9.81589C14.4508 10.0785 13.9157 10.3592 13.3673 10.6645L13.3403 10.6788C10.597 12.1491 8.09238 13.8918 6.80218 15.6122C4.76636 18.2823 4.45221 21.1155 5.83669 24.7483C5.92471 24.9705 6.18335 24.6078 6.2632 24.7951C7.32523 27.2975 8.72438 29.7765 10.6352 32.1139C10.7888 32.3016 10.835 31.8166 11.0896 32.11C11.6077 32.7036 12.2722 33.5493 12.7147 34.2276C12.936 34.5636 12.38 34.3438 12.6094 34.6791C13.143 35.4581 13.835 36.2542 14.5481 36.9359C14.8483 37.2216 14.6514 36.5385 15.0228 36.9272C17.6121 39.6093 20.3243 42.0671 23.0079 44.8638C23.1903 45.0543 22.9879 45.6727 23.492 45.9414C23.6283 45.8383 23.7486 45.6839 23.8736 45.5567C28.1705 49.0359 32.4664 52.5138 37.0402 55.751C37.2316 55.8867 37.0491 55.4291 37.4195 55.691C39.5795 57.2132 41.7596 58.6233 43.864 60.3037C44.0705 60.4681 43.7296 60.757 44.4458 61.1429C44.5746 61.2127 45.6158 61.8158 45.9154 61.9012C45.9571 61.912 45.8773 61.6303 46.1983 61.831C48.091 63.0178 50.0963 64.3328 51.8964 65.5593C52.2128 65.7723 51.775 65.7226 51.9992 65.8747C53.5625 66.9301 55.2095 67.7564 56.73 68.807C57.6795 69.4686 57.2284 69.538 57.5971 70.0616C57.5927 70.1054 58.3451 70.5209 58.2563 70.6532C58.1486 71.048 57.6546 71.286 57.5754 71.7264C57.5692 71.7631 57.6963 71.835 57.7855 71.8877C58.0251 72.0193 58.0515 72.0394 58.0235 72.0691C58.0235 72.0691 58.0235 72.0691 58.0235 72.0691C58.0041 72.085 58.0318 72.1385 57.8607 72.1092C57.8537 72.1077 57.8342 72.101 57.7978 72.0866C57.7616 72.0722 57.7003 72.0458 57.6851 72.0444C57.632 72.0299 57.5554 72.0067 57.4622 71.9769C57.2838 71.9217 56.9989 71.8186 56.9045 71.8139C56.788 71.8151 56.8781 72.0419 56.6556 72.008C56.4272 71.9714 56.2653 71.7367 55.8131 71.5977C55.3557 71.4572 55.4977 71.7459 54.7524 71.3985ZM135.371 6.0315C135.02 5.40974 134.316 6.61189 135.007 6.60263C135.04 6.60077 135.388 6.06225 135.371 6.0315ZM87.2735 54.3421C88.1924 54.2559 88.3926 53.4536 87.7285 53.4951C87.0678 53.539 86.9953 54.37 87.2735 54.3421ZM79.8543 58.9974C80.8582 58.7518 80.4196 57.6565 79.6152 58.3992C79.5685 58.442 79.796 59.0119 79.8543 58.9974ZM55.0193 68.7181C55.0018 68.7179 55.4912 69.0019 55.506 69.001C55.8512 68.9771 54.9077 68.4246 55.0193 68.7181ZM72.4189 63.4863C72.7597 63.4591 73.4909 62.8697 73.0575 62.9083C72.7073 62.9421 71.9931 63.5236 72.4189 63.4863ZM103.174 3.48672C103.16 3.46722 102.792 3.5272 102.825 3.64727C102.936 4.03307 103.416 3.81274 103.174 3.48672ZM59.3903 70.4754C61.2736 69.5245 63.0101 69.4323 60.6871 70.524C60.3009 70.7052 61.416 69.9057 60.8931 70.1026C60.027 70.4234 59.49 71.17 58.5935 71.3664C58.591 71.3561 58.5595 71.3365 58.5805 71.2787C58.5929 71.2489 58.6244 71.2065 58.6927 71.1441C58.7516 71.0863 58.904 70.9796 58.9077 70.9487C59.0507 70.7602 59.3277 70.5055 59.3937 70.4726C59.3926 70.4735 59.3915 70.4745 59.3903 70.4754ZM135.851 4.39509C135.851 4.37159 135.357 4.10292 135.334 4.11439C134.877 4.37952 135.845 4.90343 135.851 4.39509ZM81.8459 8.30558C81.8043 8.27391 80.6458 8.59684 80.622 8.64559C80.2596 9.57346 82.5958 8.92439 81.8459 8.30558ZM124.615 31.7785C124.403 32.4435 123.88 32.9046 123.236 32.7902C123.684 32.4763 124.147 32.1192 124.615 31.7785Z" fill="#0A0A08"/>
</svg>
